

<svg viewBox="0 0 97 98" width="97" height="98" xmlns="http://www.w3.org/2000/svg"
    xmlns:xlink="http://www.w3.org/1999/xlink" 
    xml:space="preserve" overflow="hidden">
    <g 
    transform="translate(-168 -110)"><g><g><g><g>
        <path 
        d="M252 160C251.5 160 251.1 159.7 250.8 159.4 250.3 158.9 250 158 250 157.1 250 155.8 250.9 154.8 251.7 154.2L251.8 154.1C253.7 155.1 254 156.1 254 157 254 158.6 253.1 160 252 160ZM224.8 140.3C224.5 141 223.7 141.5 223 141.5 222.7 141.5 222.4 141.4 222.2 141.3 219 139.8 215.5 139 212.2 139 210.3 139 208.4 139.3 206.5 139.8 205.4 140.1 204.3 139.5 204 138.4 203.7 137.3 204.3 136.2 205.4 135.9 207.6 135.3 209.9 135 212.1 135 215.9 135 220 135.9 223.7 137.6 224.8 138.1 225.3 139.3 224.8 140.3ZM259.3 148C256.8 147.6 253.7 148.3 251.2 149.7 248.9 149.2 245.4 149.2 242.2 150.3 237.5 139.1 224.4 131 212 131 207.7 131 203.4 132 199.5 133.8L187.2 128C186.4 127.6 185.5 128.4 185.8 129.2L189.8 140.5C187.4 143 185.4 145.9 184 149.1 183.8 149.7 183.3 150.1 182.6 150.3L179 151.2C177.2 151.6 176 153.2 176 155.1L176 162.9C176 164.7 177.2 166.3 179 166.8L182.7 167.7C183.3 167.9 183.8 168.3 184.1 168.9 185.8 172.8 188.4 176.3 191.6 179.2 191.9 179.5 192.2 179.9 192.3 180.4L193.8 189.5C194 190.5 194.8 191.2 195.8 191.2L202.4 191.2C203.4 191.2 204.2 190.5 204.4 189.5L204.9 186.3C207.2 186.9 209.6 187.2 212.1 187.2 214.8 187.2 217.6 186.8 220.2 186.1L220.8 189.5C221 190.5 221.8 191.2 222.8 191.2L229.4 191.2C230.4 191.2 231.2 190.5 231.4 189.5L232.9 180.4C233 179.9 233.2 179.5 233.6 179.2 239.7 173.9 244 166.9 244 159 244 157.3 243.8 155.7 243.4 154.1 244.6 153.7 245.9 153.4 247.1 153.4 246.4 154.5 246 155.7 246 157 245.9 159 246.7 160.9 248 162.3 249.1 163.4 250.5 164.1 252 164.1 255.3 164.1 258 161 258 157.1 258 155.2 257.3 153.5 255.9 152.2 256.9 152 257.8 151.9 258.7 152 259.8 152.2 260.8 151.4 261 150.3 261.1 149.2 260.4 148.2 259.3 148Z" 
        fill="#B0ACFB" 
        fill-rule="nonzero" 
        fill-opacity="1"
    />
    </g></g></g></g></g>
</svg>