<svg viewBox="0 0 97 98" width="97" height="98" xmlns="http://www.w3.org/2000/svg" xmlns:xlink="http://www.w3.org/1999/xlink" xml:space="preserve" overflow="hidden"><g transform="translate(-416 -110)"><g><g><g><g><path d="M503 182 500 185 431 185 427 181 427 161 431 157 500 157 503 160 503 182ZM421 151 421 191 509 191 509 151 421 151Z" fill="#A9D18E" fill-rule="nonzero" fill-opacity="1"/><path d="M473 171C473 176.523 469.418 181 465 181 460.582 181 457 176.523 457 171 457 165.477 460.582 161 465 161 469.418 161 473 165.477 473 171Z" fill="#A9D18E" fill-rule="nonzero" fill-opacity="1"/><path d="M443 171C443 172.657 441.657 174 440 174 438.343 174 437 172.657 437 171 437 169.343 438.343 168 440 168 441.657 168 443 169.343 443 171Z" fill="#A9D18E" fill-rule="nonzero" fill-opacity="1"/><path d="M493 171C493 172.657 491.657 174 490 174 488.343 174 487 172.657 487 171 487 169.343 488.343 168 490 168 491.657 168 493 169.343 493 171Z" fill="#A9D18E" fill-rule="nonzero" fill-opacity="1"/><path d="M482.9 131.7 484.4 135.5 490.4 134.3 486.2 123.8 432.4 145.8 463.2 139.7Z" fill="#A9D18E" fill-rule="nonzero" fill-opacity="1"/><path d="M477.7 147 493.5 143.9 494.2 147 500.3 147 498.3 136.8 447 147Z" fill="#A9D18E" fill-rule="nonzero" fill-opacity="1"/></g></g></g></g></g></svg>