<svg viewBox="0 0 97 98" width="97" height="98" xmlns="http://www.w3.org/2000/svg" xmlns:xlink="http://www.w3.org/1999/xlink" xml:space="preserve" overflow="hidden"><g transform="translate(-548 -110)"><g><g><g><g><path d="M572 193 572 125 597 125 597 146 622 146 622 193 572 193ZM603 127.5 615.5 140 603 140 603 127.5ZM603 119 566 119 566 199 628 199 628 141 603 119Z" fill="#20CCE5" fill-rule="nonzero" fill-opacity="1"/><path d="M578 156 616 156 616 160 578 160Z" fill="#20CCE5" fill-rule="nonzero" fill-opacity="1"/><path d="M578 148 591 148 591 152 578 152Z" fill="#20CCE5" fill-rule="nonzero" fill-opacity="1"/><path d="M578 164 616 164 616 168 578 168Z" fill="#20CCE5" fill-rule="nonzero" fill-opacity="1"/><path d="M578 172 616 172 616 176 578 176Z" fill="#20CCE5" fill-rule="nonzero" fill-opacity="1"/><path d="M578 180 616 180 616 184 578 184Z" fill="#20CCE5" fill-rule="nonzero" fill-opacity="1"/></g></g></g></g></g></svg>