<svg viewBox="0 0 97 98" width="97" height="98" xmlns="http://www.w3.org/2000/svg" xmlns:xlink="http://www.w3.org/1999/xlink" xml:space="preserve" overflow="hidden"><g transform="translate(-45 -110)"><g><g><g><g><path d="M128 153 60 153 60 137 128 137 128 153ZM128 181 60 181 60 165 128 165 128 181ZM130 131 58 131C55.8 131 54 132.8 54 135L54 183C54 185.2 55.8 187 58 187L130 187C132.2 187 134 185.2 134 183L134 135C134 132.8 132.2 131 130 131Z" fill="#FFD966" fill-rule="nonzero" fill-opacity="1"/><path d="M66 171 82 171 82 175 66 175Z" fill="#FFD966" fill-rule="nonzero" fill-opacity="1"/><path d="M86 171 94 171 94 175 86 175Z" fill="#FFD966" fill-rule="nonzero" fill-opacity="1"/></g></g></g></g></g></svg>